<?xml version="1.0" standalone="no"?>
<!DOCTYPE svg PUBLIC "-//W3C//DTD SVG 20010904//EN"
 "http://www.w3.org/TR/2001/REC-SVG-20010904/DTD/svg10.dtd">
<svg version="1.0" xmlns="http://www.w3.org/2000/svg"
 width="297.000000pt" height="424.000000pt" viewBox="0 0 297.000000 424.000000"
 preserveAspectRatio="xMidYMid meet">

<g transform="translate(0.000000,424.000000) scale(0.100000,-0.100000)"
fill="#000000" stroke="none">
<path d="M1320 4210 c-126 -7 -216 -27 -310 -68 -185 -81 -387 -188 -475 -252
-250 -182 -237 -170 -325 -300 -111 -165 -134 -226 -169 -457 -6 -40 -16 -104
-22 -142 -10 -56 -9 -80 5 -142 9 -41 23 -127 30 -191 21 -166 90 -362 151
-428 53 -57 233 -341 239 -377 4 -21 18 -72 30 -113 57 -181 61 -231 39 -475
-20 -225 -51 -362 -138 -618 -43 -129 -50 -189 -21 -195 11 -2 43 -22 71 -43
29 -21 56 -39 60 -39 5 0 41 -21 82 -46 97 -60 254 -138 323 -159 30 -9 93
-30 140 -46 191 -64 365 -98 556 -106 104 -4 143 -3 148 6 4 7 9 103 11 214 2
183 6 216 35 352 42 198 97 335 178 441 33 44 78 92 99 107 50 34 143 57 234
57 176 1 280 27 334 84 63 65 80 131 80 305 l0 143 39 34 c38 33 39 35 32 84
-6 42 -4 52 14 67 26 22 25 27 -4 66 -32 42 -53 130 -46 189 3 26 9 51 14 55
4 4 44 8 89 9 102 0 117 7 117 49 0 23 -16 54 -57 111 -66 92 -157 239 -186
304 -18 39 -21 62 -19 167 2 115 0 126 -29 200 -43 107 -75 168 -120 232 -44
61 -46 77 -23 165 11 43 15 89 12 156 -4 88 -7 101 -47 180 -46 89 -136 193
-200 232 -20 12 -47 31 -61 44 -14 12 -49 32 -78 43 -29 12 -63 27 -75 35 -96
62 -378 86 -757 66z m160 -251 c139 -39 290 -130 391 -237 121 -126 195 -216
240 -292 85 -143 146 -536 111 -715 -43 -221 -103 -366 -207 -505 -81 -107
-107 -132 -206 -197 -48 -32 -88 -64 -88 -70 -1 -14 -53 -43 -123 -69 -129
-48 -161 -55 -286 -66 -124 -10 -140 -9 -240 12 -137 29 -193 51 -322 125 -86
50 -123 79 -212 170 -93 95 -115 124 -162 215 -51 99 -97 229 -116 330 -12 61
-30 236 -30 285 0 71 39 253 69 327 16 40 32 86 36 102 18 81 228 350 325 416
132 90 362 178 495 191 114 10 238 2 325 -22z m144 -3254 c13 -20 16 -57 16
-228 0 -191 -1 -205 -20 -225 -20 -21 -27 -22 -245 -22 -212 0 -226 1 -245 20
-19 19 -20 33 -20 234 0 211 0 215 22 230 19 13 60 16 249 16 l227 0 16 -25z"/>
<path d="M1127 3959 c-27 -4 -54 -12 -60 -17 -7 -5 -36 -17 -64 -26 -57 -19
-194 -122 -236 -178 -38 -51 -105 -197 -116 -253 -31 -156 -31 -176 -10 -270
23 -94 47 -152 73 -174 14 -12 16 -10 16 11 0 52 78 79 113 40 27 -29 22 -87
-9 -111 -27 -21 -51 -19 -71 7 -7 9 -15 13 -18 10 -3 -3 11 -29 31 -59 64 -92
124 -230 124 -284 0 -26 5 -112 12 -192 10 -132 10 -146 -5 -155 -22 -12 -21
-41 1 -61 16 -15 53 -17 312 -17 161 0 291 -2 289 -5 -3 -2 -131 -5 -285 -6
-153 0 -289 -5 -301 -10 -30 -11 -30 -53 -1 -73 l22 -16 -22 -23 c-12 -13 -22
-33 -22 -45 0 -27 41 -55 85 -56 27 -1 42 -11 75 -49 23 -26 46 -44 51 -41 5
3 25 -8 45 -25 35 -31 95 -43 109 -22 12 20 196 141 205 136 15 -9 100 32 100
49 0 8 -11 28 -25 44 l-25 30 25 16 c32 21 36 76 6 76 -30 0 -33 16 -6 28 35
16 44 60 16 83 -12 10 -17 20 -12 24 6 3 10 18 10 33 0 15 3 86 6 157 4 72 3
125 -2 119 -4 -6 -18 -16 -30 -23 -21 -11 -23 -19 -25 -143 l-3 -132 -30 0
-30 0 -6 134 c-3 74 -11 150 -18 168 -8 20 -11 49 -7 75 4 23 9 63 12 88 8 62
48 112 91 112 62 0 111 -56 99 -113 l-6 -25 18 25 c9 13 46 60 82 103 90 109
117 152 134 211 31 111 30 210 -6 371 l-11 49 -15 -49 c-9 -30 -17 -105 -19
-183 -4 -117 -7 -136 -24 -153 -20 -20 -20 -21 -3 -34 14 -10 16 -16 7 -27 -7
-8 -10 -24 -6 -36 4 -16 1 -22 -12 -22 -12 0 -15 -5 -10 -21 5 -15 2 -22 -14
-26 -12 -3 -21 -12 -21 -20 0 -11 -7 -13 -24 -9 -17 4 -26 1 -30 -10 -5 -12
-9 -14 -20 -5 -7 6 -21 9 -30 5 -10 -4 -18 0 -22 10 -3 9 -14 15 -23 14 -10
-2 -17 5 -19 20 -2 12 -10 22 -19 22 -11 0 -14 6 -9 25 4 14 2 25 -2 25 -15 0
-11 81 5 87 8 3 11 13 8 24 -5 14 -1 19 13 19 11 0 22 9 25 19 3 14 11 18 26
14 12 -3 21 -1 21 6 0 15 27 14 33 -1 3 -10 8 -10 21 1 15 13 18 12 22 -7 4
-12 11 -19 20 -15 11 4 14 29 14 109 l0 103 -29 15 c-21 11 -31 27 -40 59 -8
35 -16 46 -36 51 -14 4 -25 10 -25 14 -1 23 -18 32 -43 23 -29 -11 -36 -35
-12 -45 18 -6 19 -15 5 -51 -8 -22 -13 -24 -29 -15 -27 14 -37 -5 -20 -36 11
-22 10 -27 -9 -46 -21 -21 -22 -21 -42 -3 -17 15 -23 16 -29 6 -5 -7 -6 -22
-3 -33 3 -11 -1 -24 -9 -29 -22 -14 -49 -10 -49 6 0 8 -9 15 -20 15 -15 0 -20
-7 -20 -25 0 -43 27 -85 55 -85 22 0 24 3 19 28 -4 18 -1 32 9 40 21 18 47 4
47 -24 0 -28 7 -30 38 -8 15 10 22 24 20 41 -5 41 19 38 27 -3 6 -34 4 -40
-29 -68 -34 -30 -35 -32 -26 -76 5 -25 7 -66 3 -92 -5 -44 -3 -50 27 -78 31
-29 36 -50 13 -57 -6 -2 -25 11 -43 29 -31 30 -32 31 -25 8 8 -28 8 -26 6 -58
-1 -31 -44 -72 -75 -72 -13 0 -38 11 -54 25 -25 21 -31 23 -36 9 -10 -27 -7
-34 17 -31 17 2 23 -4 25 -25 2 -16 -1 -28 -7 -28 -6 0 -11 -7 -11 -15 0 -8 7
-15 15 -15 8 0 15 -4 15 -9 0 -5 3 -16 6 -25 4 -12 0 -16 -15 -16 -24 0 -26
-12 -9 -39 16 -27 3 -54 -23 -46 -19 6 -20 4 -14 -23 3 -18 2 -33 -4 -37 -17
-10 -13 -25 8 -25 10 0 21 7 25 15 7 19 26 20 26 2 0 -22 35 -48 54 -41 15 6
17 2 11 -30 -5 -23 -3 -41 5 -51 10 -13 8 -20 -14 -42 -16 -16 -24 -33 -21
-43 5 -14 -1 -17 -31 -16 -22 1 -39 -4 -41 -11 -4 -10 21 -13 101 -13 64 0
106 -4 106 -10 0 -13 -547 -14 -554 -1 -4 5 -1 11 6 13 8 3 5 13 -10 33 -46
58 -13 158 51 158 22 0 25 2 16 13 -6 7 -8 18 -4 24 11 17 -5 32 -21 19 -23
-19 -44 6 -37 43 5 27 4 30 -15 24 -26 -8 -40 27 -21 50 11 13 10 18 -4 25
-21 12 -23 59 -2 59 8 0 15 7 15 15 0 8 -5 15 -11 15 -6 0 -9 12 -7 28 2 20 8
27 25 27 24 0 26 5 16 31 -8 22 23 52 39 36 20 -20 28 -14 28 24 0 40 -21 63
-57 64 -29 0 -36 -13 -22 -44 10 -22 9 -33 -7 -66 -30 -62 -61 -48 -32 15 9
19 8 31 -2 53 -7 15 -18 49 -24 76 -10 44 -15 51 -42 58 -30 7 -43 28 -44 66
0 20 16 14 28 -12 5 -13 20 -26 31 -29 19 -5 20 -2 14 41 -8 56 -35 83 -75 75
-31 -6 -39 15 -15 35 20 17 9 83 -14 89 -28 8 -25 43 4 43 29 0 57 45 50 83
-6 29 12 38 34 16 17 -17 80 0 86 23 7 26 31 18 35 -12 4 -22 37 -59 55 -60 4
0 3 9 -3 19 -15 29 -12 61 5 61 8 0 15 9 15 20 0 13 -7 20 -19 20 -26 0 -34
15 -27 46 5 18 12 24 22 20 23 -9 30 25 9 40 -15 12 -17 19 -9 42 8 22 15 26
37 24 30 -3 34 8 15 38 -11 17 -9 23 9 42 21 21 23 21 41 5 16 -14 21 -15 30
-4 6 7 9 23 6 34 -4 15 0 25 17 33 19 11 24 9 39 -10 19 -25 40 -20 40 11 0
30 57 27 62 -3 3 -26 38 -38 38 -14 0 24 19 29 46 11 18 -11 23 -22 19 -35
-10 -31 4 -44 26 -24 19 17 21 17 41 -4 17 -17 20 -24 10 -34 -7 -7 -12 -20
-12 -31 0 -14 6 -18 27 -15 22 2 29 -2 37 -25 9 -24 7 -31 -7 -42 -24 -17 -21
-35 6 -35 15 0 26 9 35 28 22 50 92 71 131 39 8 -6 3 4 -12 24 -34 45 -129
115 -188 139 -58 24 -210 58 -279 63 -30 2 -77 0 -103 -4z m-184 -212 c60 -69
16 -177 -73 -177 -33 0 -43 6 -65 34 -28 36 -38 117 -16 124 6 2 11 10 11 18
0 8 7 14 15 14 8 0 15 4 15 9 0 12 38 20 65 14 11 -3 32 -19 48 -36z m567
-1639 c0 -17 -553 -15 -558 1 -3 8 83 11 277 11 218 0 281 -3 281 -12z"/>
<path d="M842 3724 c-44 -30 -18 -114 35 -114 22 0 53 39 53 65 0 26 -31 65
-53 65 -7 0 -23 -7 -35 -16z"/>
<path d="M1221 3819 c-132 -53 -167 -228 -66 -331 111 -115 291 -43 303 122 7
96 -26 163 -99 200 -40 21 -98 25 -138 9z m-52 -169 c15 -50 36 -54 28 -6 -7
44 3 53 25 24 15 -19 18 -20 18 -5 0 9 5 17 10 17 6 0 10 -20 10 -45 0 -50
-10 -56 -33 -22 -13 18 -16 19 -16 5 -1 -20 -30 -28 -54 -14 -13 8 -20 7 -27
-4 -14 -22 -13 18 1 59 15 41 23 39 38 -9z m163 20 c15 -23 28 -26 28 -6 0 13
20 26 41 26 17 0 9 -18 -11 -23 -12 -3 -20 -14 -20 -27 0 -13 8 -24 20 -27 26
-7 26 -23 0 -23 -12 0 -24 9 -28 21 l-8 20 -18 -20 c-11 -12 -27 -21 -38 -21
-15 0 -18 8 -18 50 0 43 3 50 20 50 11 0 25 -9 32 -20z"/>
<path d="M1140 3639 c0 -5 5 -7 10 -4 6 3 10 8 10 11 0 2 -4 4 -10 4 -5 0 -10
-5 -10 -11z"/>
<path d="M1297 3663 c-13 -12 -7 -53 7 -53 17 0 28 24 20 45 -7 16 -17 19 -27
8z"/>
<path d="M1622 3698 c-10 -13 -15 -40 -13 -65 0 -7 12 -20 26 -29 23 -15 27
-15 50 0 45 29 25 106 -27 106 -14 0 -30 -6 -36 -12z"/>
<path d="M1750 3648 c0 -33 -46 -98 -69 -98 -11 0 -3 -39 12 -57 19 -25 34
-14 33 25 -1 34 1 37 27 37 23 -1 27 3 27 28 0 26 2 28 16 16 13 -11 12 -5 -4
28 -29 56 -42 62 -42 21z"/>
<path d="M1060 3493 c0 -4 5 -15 10 -23 8 -13 10 -13 10 2 0 9 -4 20 -10 23
-5 3 -10 3 -10 -2z"/>
<path d="M1750 3469 c0 -5 5 -7 10 -4 6 3 10 8 10 11 0 2 -4 4 -10 4 -5 0 -10
-5 -10 -11z"/>
<path d="M865 3435 c-52 -51 -16 -145 54 -145 48 0 86 50 75 97 -17 70 -83 95
-129 48z"/>
<path d="M1050 3407 c0 -31 4 -40 20 -44 26 -7 27 -43 1 -43 -28 0 -60 -49
-54 -83 4 -20 1 -27 -11 -27 -10 0 -16 -9 -16 -22 0 -29 -9 -42 -38 -57 -17
-9 -22 -19 -20 -39 3 -23 7 -27 33 -25 35 3 61 -16 95 -72 24 -38 24 -39 30
-15 8 34 53 36 58 3 4 -28 18 -29 32 -3 9 17 14 18 31 9 13 -6 18 -17 15 -26
-9 -23 3 -36 20 -22 11 9 18 9 26 1 15 -15 31 -16 23 -2 -4 6 -1 27 5 46 10
29 10 38 0 44 -29 18 36 120 76 120 20 0 24 5 24 29 0 34 -15 48 -55 53 -25 2
-32 10 -44 45 -9 24 -23 44 -33 46 -10 3 -18 14 -18 26 0 26 -28 28 -45 4 -11
-14 -17 -15 -39 -5 -22 10 -25 16 -20 42 7 34 -1 38 -28 13 -18 -16 -20 -16
-43 12 l-24 30 -1 -38z m120 -87 c0 -6 11 -8 25 -4 19 5 25 2 25 -10 0 -10 8
-15 23 -13 16 1 22 -3 21 -15 -1 -10 4 -18 12 -18 13 0 19 -13 15 -34 -1 -4 4
-14 10 -22 8 -10 8 -18 1 -27 -6 -7 -9 -23 -5 -35 3 -13 1 -22 -6 -22 -6 0
-11 -11 -11 -25 0 -18 -5 -25 -20 -25 -12 0 -20 -7 -20 -16 0 -9 -7 -14 -17
-12 -10 2 -23 -3 -29 -11 -7 -9 -16 -11 -25 -5 -8 5 -21 7 -30 6 -9 -2 -19 4
-22 12 -4 9 -13 13 -22 10 -9 -4 -18 1 -22 12 -4 11 -13 24 -21 30 -8 6 -12
16 -8 22 4 6 1 21 -6 32 -11 17 -11 22 1 30 12 7 12 11 2 24 -11 13 -11 17 3
22 9 3 16 17 16 30 0 14 6 24 14 24 8 0 17 7 20 16 4 10 13 13 25 9 12 -3 21
0 25 10 6 17 26 21 26 5z"/>
<path d="M1150 3256 c0 -8 5 -18 10 -21 6 -3 10 3 10 14 0 12 -4 21 -10 21 -5
0 -10 -6 -10 -14z"/>
<path d="M1205 3239 c-4 -6 -5 -13 -2 -16 7 -7 27 6 27 18 0 12 -17 12 -25 -2z"/>
<path d="M1100 3226 c0 -9 7 -16 16 -16 9 0 14 5 12 12 -6 18 -28 21 -28 4z"/>
<path d="M1236 3193 c-11 -11 -6 -23 9 -23 8 0 15 4 15 9 0 13 -16 22 -24 14z"/>
<path d="M1082 3169 c2 -6 8 -10 13 -10 5 0 11 4 13 10 2 6 -4 11 -13 11 -9 0
-15 -5 -13 -11z"/>
<path d="M1212 3129 c2 -7 10 -15 17 -17 8 -3 12 1 9 9 -2 7 -10 15 -17 17 -8
3 -12 -1 -9 -9z"/>
<path d="M1115 3119 c-4 -6 -5 -13 -2 -16 7 -7 27 6 27 18 0 12 -17 12 -25 -2z"/>
<path d="M1166 3103 c-11 -11 -6 -23 9 -23 8 0 15 4 15 9 0 13 -16 22 -24 14z"/>
<path d="M928 3223 c-19 -5 -20 -13 -10 -51 6 -20 9 -21 23 -10 9 7 19 25 23
41 7 28 2 30 -36 20z"/>
<path d="M1625 3197 c-4 -10 -5 -21 -1 -24 10 -10 18 4 13 24 -4 17 -4 17 -12
0z"/>
<path d="M1674 3176 c-8 -22 -2 -27 16 -16 12 7 12 12 3 21 -10 10 -14 9 -19
-5z"/>
<path d="M1565 3170 c-4 -7 -1 -16 6 -21 17 -10 26 8 11 23 -6 6 -12 6 -17 -2z"/>
<path d="M1695 3121 c-7 -12 12 -24 25 -16 11 7 4 25 -10 25 -5 0 -11 -4 -15
-9z"/>
<path d="M1356 3088 c-22 -31 -20 -46 7 -45 12 1 32 -2 45 -7 20 -7 22 -4 22
33 0 39 -2 41 -29 41 -20 0 -35 -8 -45 -22z"/>
<path d="M1550 3100 c0 -5 7 -10 15 -10 8 0 15 5 15 10 0 6 -7 10 -15 10 -8 0
-15 -4 -15 -10z"/>
<path d="M1625 3090 c3 -5 8 -10 11 -10 2 0 4 5 4 10 0 6 -5 10 -11 10 -5 0
-7 -4 -4 -10z"/>
<path d="M772 3068 c-27 -27 -3 -73 35 -66 27 5 25 72 -2 76 -11 1 -26 -3 -33
-10z"/>
<path d="M1682 3061 c4 -13 18 -16 19 -4 0 4 -5 9 -11 12 -7 2 -11 -2 -8 -8z"/>
<path d="M1577 3054 c-8 -8 1 -24 14 -24 5 0 9 7 9 15 0 15 -12 20 -23 9z"/>
<path d="M1630 3025 c0 -9 5 -15 11 -13 6 2 11 8 11 13 0 5 -5 11 -11 13 -6 2
-11 -4 -11 -13z"/>
<path d="M1348 2999 c-22 -12 -24 -62 -4 -79 25 -20 60 -8 71 24 8 24 6 31
-14 47 -27 22 -30 22 -53 8z"/>
<path d="M1052 2900 c-46 -28 -72 -76 -72 -133 0 -164 192 -219 265 -76 22 41
19 117 -5 157 -26 42 -76 72 -120 72 -19 0 -50 -9 -68 -20z"/>
<path d="M1487 2872 c-10 -10 -17 -28 -17 -40 0 -25 33 -62 55 -62 21 0 55 36
55 58 0 52 -60 80 -93 44z"/>
<path d="M1446 2744 c-9 -23 -2 -28 13 -10 7 8 8 17 3 20 -6 3 -13 -1 -16 -10z"/>
<path d="M1580 2738 c0 -19 2 -20 10 -8 13 19 13 30 0 30 -5 0 -10 -10 -10
-22z"/>
<path d="M1510 2711 c0 -11 -3 -26 -6 -35 -8 -21 10 -21 30 0 23 22 20 54 -4
54 -13 0 -20 -7 -20 -19z"/>
<path d="M1220 2566 c0 -29 -30 -43 -46 -22 -15 22 -24 20 -24 -4 0 -15 -7
-20 -26 -20 -17 0 -28 6 -31 20 -7 26 -19 25 -33 0 -9 -16 -8 -22 4 -26 26
-10 41 -77 27 -113 -7 -16 -19 -32 -28 -35 -38 -15 7 -26 103 -26 95 0 104 2
104 19 0 22 -25 45 -40 36 -17 -11 -32 5 -19 21 12 15 4 64 -11 64 -19 0 -10
25 13 35 15 7 23 20 25 43 2 18 -1 32 -7 32 -6 0 -11 -11 -11 -24z"/>
<path d="M1273 2518 c-20 -26 -23 -51 -8 -74 45 -68 124 -7 85 67 -12 22 -62
26 -77 7z"/>
<path d="M976 2474 c-22 -21 -20 -50 4 -74 24 -24 29 -24 58 -4 24 16 28 44
12 75 -13 23 -53 25 -74 3z"/>
<path d="M1160 480 l0 -190 95 0 c88 0 95 1 95 20 0 18 -7 20 -75 20 l-76 0 3
68 3 67 63 5 c84 7 84 24 -1 28 l-68 3 3 67 3 66 65 1 c53 0 65 3 68 18 3 15
-6 17 -87 17 l-91 0 0 -190z"/>
<path d="M1415 658 c-3 -8 -4 -92 -3 -188 l3 -175 93 -3 c87 -3 92 -2 92 18 0
18 -6 20 -70 20 l-70 0 -2 167 c-3 151 -5 168 -21 171 -9 2 -19 -3 -22 -10z"/>
</g>
</svg>
